<svg xmlns="http://www.w3.org/2000/svg" width="2400" height="1350" viewBox="0 0 2400 1350"><defs><linearGradient id="sky" x1="0" y1="0" x2="0" y2="1"><stop offset="0" stop-color="#0F1B2F"/><stop offset="0.5" stop-color="#1F3350"/><stop offset="1" stop-color="#375078"/></linearGradient><radialGradient id="glow" cx="50%" cy="56%" r="58%"><stop offset="0" stop-color="#7E9CC9" stop-opacity="0.22"/><stop offset="1" stop-color="#7E9CC9" stop-opacity="0"/></radialGradient><linearGradient id="mist" x1="0" y1="0" x2="0" y2="1"><stop offset="0" stop-color="#C6D7F2" stop-opacity="0"/><stop offset="0.45" stop-color="#C6D7F2" stop-opacity="0.30"/><stop offset="1" stop-color="#C6D7F2" stop-opacity="0"/></linearGradient></defs><rect width="2400" height="1350" fill="url(#sky)"/><rect width="2400" height="1350" fill="url(#glow)"/><path d="M -60 786 L 380 724 L 760 772 L 1140 718 L 1520 768 L 1900 716 L 2460 770 L 2460 1400 L -60 1400 Z" fill="#3A547C" opacity="0.38"/><rect x="0" y="630" width="2400" height="280" fill="url(#mist)"/><path d="M -60 880 L 1180 346 L 2460 880 L 2460 1400 L -60 1400 Z" fill="#22375B"/><path d="M 1180 346 L 1624 520 L 1556 494 L 1494 530 L 1424 498 L 1356 534 L 1286 500 L 1218 538 L 1148 504 L 1078 540 L 1008 506 L 938 536 L 866 502 L 776 520 Z" fill="#DEE9FA" opacity="0.42"/><path d="M 1660 880 L 2040 614 L 2460 880 L 2460 1400 L 1660 1400 Z" fill="#1E3150" opacity="0.92"/><rect x="0" y="766" width="2400" height="200" fill="url(#mist)"/><rect x="0" y="906" width="2400" height="444" fill="#131F34"/><rect x="0" y="906" width="2400" height="200" fill="#22375B" opacity="0.40"/><rect x="-200" y="946" width="1320" height="2" rx="1" fill="#9DB6DC" opacity="0.150"/><rect x="-30" y="1013" width="1608" height="2" rx="1" fill="#9DB6DC" opacity="0.132"/><rect x="140" y="1081" width="1896" height="2" rx="1" fill="#9DB6DC" opacity="0.114"/><rect x="-200" y="1148" width="2184" height="2" rx="1" fill="#9DB6DC" opacity="0.096"/><rect x="-30" y="1215" width="1320" height="2" rx="1" fill="#9DB6DC" opacity="0.078"/><rect x="140" y="1283" width="1608" height="2" rx="1" fill="#9DB6DC" opacity="0.060"/><path d="M 880 906 L 1180 1046 L 1480 906 L 1480 906 L 880 906 Z" fill="#22375B" opacity="0.20"/></svg>